<?xml version="1.0" encoding="utf-8"?>
<!-- Generator: Adobe Illustrator 23.0.3, SVG Export Plug-In . SVG Version: 6.00 Build 0)  -->
<svg version="1.1" xmlns="http://www.w3.org/2000/svg" xmlns:xlink="http://www.w3.org/1999/xlink" x="0px" y="0px"
	 viewBox="0 0 606.9 606.9" style="enable-background:new 0 0 606.9 606.9;" xml:space="preserve">
<style type="text/css">
	.st0{display:none;}
	.st1{display:inline;}
	.st2{fill:#E476FF;}
	.st3{fill:#FFFFFF;}
	.st4{fill:none;stroke:#231F20;stroke-width:6;}
	.st5{fill:none;stroke:#231F20;}
	.st6{stroke:#FFFFFF;stroke-miterlimit:10;}
	.st7{fill:#FFFFFF;stroke:#000000;stroke-miterlimit:10;}
	.st8{fill:none;stroke:#000000;stroke-miterlimit:10;}
</style>
<g id="Layer_2" class="st0">
	<g class="st1">
		<rect x="-208.5" y="-208.5" class="st2" width="1031" height="1039"/>
	</g>
</g>
<g id="Layer_1">
	<path d="M-320.5,241.5v101c27.7-0.3,50-22.8,50-50.5S-292.9,241.8-320.5,241.5z"/>
	<g>
		<g>
			<path d="M459.9,333.9c-2.3,0-4.7-0.2-7.1-0.5c-23.9-3.7-41.2-25.4-39.4-49.5l1,0.1c-1.7,23.6,15.2,44.9,38.6,48.5
				c2.3,0.4,4.6,0.5,6.9,0.5c20.8,0,39.6-14.4,44.5-35.2l1,0.2C500.4,319.2,481.2,333.9,459.9,333.9z"/>
			<path class="st3" d="M413.5,283.8l1,0.1c-1.7,23.6,15.2,44.9,38.6,48.5c2.3,0.4,4.6,0.5,6.9,0.5c0,0,0,0,0,0
				c20.8,0,39.6-14.4,44.5-35.2l1,0.2c-5,21.2-24.3,35.9-45.5,35.9c-2.3,0-4.7-0.2-7.1-0.5C429,329.7,411.7,307.9,413.5,283.8
				 M402.4,271l-0.9,12c-2.2,30.3,19.6,57.6,49.6,62.3c2.9,0.5,5.9,0.7,8.9,0.7c13,0,25.9-4.5,36.2-12.6c10.5-8.2,17.9-19.8,21-32.6
				l2.8-11.7l-11.7-2.8l-1-0.2l-11.7-2.8l-2.8,11.7c-3.6,15-17.4,25.9-32.9,25.9c-1.7,0-3.4-0.1-5.1-0.4
				c-17.2-2.7-29.7-18.4-28.4-35.7l0.9-12l-12-0.9l-1-0.1L402.4,271L402.4,271z"/>
			<path class="st4" d="M459.9,333.9c-2.3,0-4.7-0.2-7.1-0.5c-23.9-3.7-41.2-25.4-39.4-49.5l1,0.1c-1.7,23.6,15.2,44.9,38.6,48.5
				c2.3,0.4,4.6,0.5,6.9,0.5c20.8,0,39.6-14.4,44.5-35.2l1,0.2C500.4,319.2,481.2,333.9,459.9,333.9z"/>
		</g>
		<g>
			<path d="M237.6,454.2c-6.4-8.8-17.3-27.3-18.1-52.3c-1-29.6,12.2-51.1,20.1-61.3l0.8,0.6c-7.9,10.1-20.9,31.4-19.9,60.7
				c0.8,24.7,11.6,43,17.9,51.7L237.6,454.2z"/>
			<path class="st3" d="M239.6,340.6l0.8,0.6c-7.9,10.1-20.9,31.4-19.9,60.7c0.8,24.7,11.6,43,17.9,51.7l-0.8,0.6
				c-6.4-8.8-17.3-27.3-18.1-52.3C218.5,372.3,231.6,350.8,239.6,340.6 M237.5,323.7l-7.4,9.5c-8.9,11.5-23.8,35.7-22.6,69.1
				c1,28.2,13.2,49,20.4,58.9l7.1,9.7l9.7-7.1l0.8-0.6l9.7-7.1l-7.1-9.7c-5.5-7.6-14.9-23.5-15.6-45.1
				c-0.9-25.5,10.5-44.1,17.4-52.9l7.4-9.5l-9.5-7.4l-0.8-0.6L237.5,323.7L237.5,323.7z"/>
			<path class="st4" d="M237.6,454.2c-6.4-8.8-17.3-27.3-18.1-52.3c-1-29.6,12.2-51.1,20.1-61.3l0.8,0.6
				c-7.9,10.1-20.9,31.4-19.9,60.7c0.8,24.7,11.6,43,17.9,51.7L237.6,454.2z"/>
		</g>
		<g>
			<path d="M345.4,454.2l-0.8-0.6c6.8-8.8,15.5-23.4,17.9-42.8c4.4-34.9-14.9-61.4-20.9-68.6l0.8-0.6c6.1,7.3,25.5,34.1,21.1,69.4
				C361,430.5,352.3,445.3,345.4,454.2z"/>
			<path class="st3" d="M342.4,341.6c6.1,7.3,25.5,34.1,21.1,69.4c-2.4,19.6-11.2,34.3-18.1,43.2l-0.8-0.6
				c6.8-8.8,15.5-23.4,17.9-42.8c4.4-34.9-14.9-61.4-20.9-68.6L342.4,341.6 M344,324.7l-9.3,7.6l-0.8,0.6l-9.3,7.6l7.6,9.3
				c5.2,6.3,22,29.3,18.2,59.5c-2.1,16.7-9.6,29.3-15.5,36.9l-7.3,9.5l9.5,7.4l0.8,0.6l9.5,7.4l7.4-9.5
				c7.8-10.1,17.7-26.8,20.5-49.1c5-40.1-16.9-70.2-23.8-78.5L344,324.7L344,324.7z"/>
			<path class="st4" d="M345.4,454.2l-0.8-0.6c6.8-8.8,15.5-23.4,17.9-42.8c4.4-34.9-14.9-61.4-20.9-68.6l0.8-0.6
				c6.1,7.3,25.5,34.1,21.1,69.4C361,430.5,352.3,445.3,345.4,454.2z"/>
		</g>
		<g>
			<path d="M172.1,288.7c-15.7,0-45.4-3.5-70.5-26.4c-40.6-37.2-31.6-92.1-31.2-94.5l1,0.2c-0.4,2.3-9.3,56.7,30.8,93.5
				c30.1,27.6,67,26.8,77.6,25.9l0.1,1C178.1,288.5,175.4,288.7,172.1,288.7z"/>
			<path class="st3" d="M70.5,167.8l1,0.2c-0.4,2.3-9.3,56.7,30.8,93.5c24.8,22.7,54.3,26.2,69.8,26.2c3.3,0,6-0.2,7.8-0.3l0.1,1
				c-1.9,0.2-4.6,0.3-7.9,0.3c-15.7,0-45.4-3.5-70.5-26.4C61.1,225,70.1,170.1,70.5,167.8 M60.7,153.9l-2.1,11.8
				c-0.3,1.7-2.9,17.5,0.2,38c4,26.9,16,50.2,34.7,67.4c28.1,25.8,61.3,29.6,78.6,29.6c3.1,0,6.1-0.1,8.9-0.4l12-1l-1-12l-0.1-1
				l-1-12l-12,1c-1.4,0.1-3.8,0.3-6.8,0.3c-13.7,0-39.8-3-61.7-23c-14.6-13.4-23.7-31.2-26.9-52.6c-2.5-16.8-0.4-29.5-0.3-30
				l2.1-11.8l-11.8-2.1l-1-0.2L60.7,153.9L60.7,153.9z"/>
			<path class="st4" d="M172.1,288.7c-15.7,0-45.4-3.5-70.5-26.4c-40.6-37.2-31.6-92.1-31.2-94.5l1,0.2c-0.4,2.3-9.3,56.7,30.8,93.5
				c30.1,27.6,67,26.8,77.6,25.9l0.1,1C178.1,288.5,175.4,288.7,172.1,288.7z"/>
		</g>
		<g>
			<path d="M74.9,124.9l-45.4,45.4c12.6,12.3,32.7,12.3,45.2-0.2C87.2,157.7,87.3,137.5,74.9,124.9z"/>
			<path class="st5" d="M74.9,124.9l-45.4,45.4c12.6,12.3,32.7,12.3,45.2-0.2C87.2,157.7,87.3,137.5,74.9,124.9z"/>
			<path class="st3" d="M74.9,124.9c12.3,12.6,12.3,32.7-0.2,45.2c-6.3,6.3-14.5,9.4-22.7,9.4c-8.1,0-16.3-3.1-22.5-9.2L74.9,124.9
				 M75,116.4l-4.3,4.3l-45.4,45.4l-4.3,4.3l4.3,4.2c7.2,7,16.7,10.9,26.7,10.9c10.2,0,19.8-4,27-11.2c14.7-14.7,14.8-38.8,0.3-53.7
				L75,116.4L75,116.4z"/>
		</g>
		<g>
			<path d="M549.4,302.3L504,256.9c-12.3,12.6-12.3,32.7,0.2,45.2C516.7,314.6,536.9,314.7,549.4,302.3z"/>
			<path class="st5" d="M549.4,302.3L504,256.9c-12.3,12.6-12.3,32.7,0.2,45.2C516.7,314.6,536.9,314.7,549.4,302.3z"/>
			<path class="st3" d="M504,256.9l45.4,45.4c-6.2,6.1-14.4,9.2-22.5,9.2c-8.2,0-16.4-3.1-22.7-9.4
				C491.7,289.7,491.7,269.5,504,256.9 M504,248.4l-4.2,4.3c-14.6,14.9-14.5,38.9,0.3,53.7c7.2,7.2,16.8,11.2,27,11.2
				c10,0,19.5-3.9,26.7-10.9l4.3-4.2l-4.3-4.3l-45.4-45.4L504,248.4L504,248.4z"/>
		</g>
		<g>
			<path d="M303.5,482.6l62.4,15.4c4.1-17.1-6.4-34.4-23.6-38.6C325.2,455.2,307.8,465.6,303.5,482.6z"/>
			<path class="st5" d="M303.5,482.6l62.4,15.4c4.1-17.1-6.4-34.4-23.6-38.6C325.2,455.2,307.8,465.6,303.5,482.6z"/>
			<path class="st3" d="M334.6,458.5c2.6,0,5.1,0.3,7.7,0.9c17.1,4.2,27.6,21.5,23.6,38.6l-62.4-15.4
				C307.2,468.1,320.2,458.5,334.6,458.5 M334.6,452.5c-17.4,0-32.6,11.8-36.9,28.6l-1.5,5.9l5.9,1.5l62.4,15.4l5.9,1.5l1.4-5.9
				c4.8-20.3-7.7-40.8-28-45.8C340.7,452.9,337.6,452.5,334.6,452.5L334.6,452.5z"/>
		</g>
		<g>
			<path d="M215.9,487.7l62.5-14.8c-4.2-17.1-21.4-27.6-38.6-23.6C222.6,453.5,212,470.6,215.9,487.7z"/>
			<path class="st5" d="M215.9,487.7l62.5-14.8c-4.2-17.1-21.4-27.6-38.6-23.6C222.6,453.5,212,470.6,215.9,487.7z"/>
			<path class="st3" d="M247.2,448.5c14.5,0,27.6,9.8,31.2,24.4l-62.5,14.8c-3.9-17.2,6.8-34.3,23.9-38.4
				C242.3,448.8,244.8,448.5,247.2,448.5 M247.2,442.5c-2.9,0-5.9,0.3-8.8,1c-20.3,4.8-33,25.2-28.4,45.5l1.3,5.9l5.9-1.4l62.5-14.8
				l5.9-1.4l-1.5-5.9C280,454.5,264.8,442.5,247.2,442.5L247.2,442.5z"/>
		</g>
		<g>
			<path class="st3" d="M190.2,364.9c-20,0-36.2-16.3-36.2-36.2V221.1c0-20,16.3-36.2,36.2-36.2h214.5c20,0,36.2,16.3,36.2,36.2
				v107.5c0,20-16.3,36.2-36.2,36.2H190.2z"/>
			<path class="st3" d="M404.7,190.9c16.7,0,30.2,13.5,30.2,30.2v107.5c0,16.7-13.5,30.2-30.2,30.2H190.2
				c-16.7,0-30.2-13.5-30.2-30.2V221.1c0-16.7,13.5-30.2,30.2-30.2H404.7 M404.7,178.9H190.2c-23.3,0-42.2,18.9-42.2,42.2v107.5
				c0,23.3,18.9,42.2,42.2,42.2h214.5c23.3,0,42.2-18.9,42.2-42.2V221.1C447,197.8,428,178.9,404.7,178.9L404.7,178.9z"/>
			<path d="M404.7,190.9c16.7,0,30.2,13.5,30.2,30.2v107.5c0,16.7-13.5,30.2-30.2,30.2H190.2c-16.7,0-30.2-13.5-30.2-30.2V221.1
				c0-16.7,13.5-30.2,30.2-30.2H404.7 M404.7,184.9H190.2c-20,0-36.2,16.3-36.2,36.2v107.5c0,20,16.3,36.2,36.2,36.2h214.5
				c20,0,36.2-16.3,36.2-36.2V221.1C441,201.1,424.7,184.9,404.7,184.9L404.7,184.9z"/>
		</g>
		<path class="st6" d="M384.1,214.9H210.8c-6.6,0-11.9,5.3-11.9,11.9V311c0,6.6,5.3,11.9,11.9,11.9h173.3c6.6,0,11.9-5.3,11.9-11.9
			v-84.3C396,220.2,390.7,214.9,384.1,214.9z"/>
		<g>
			<ellipse class="st7" cx="256.5" cy="261.1" rx="23.5" ry="30.3"/>
			<ellipse class="st7" cx="338.5" cy="261.1" rx="23.5" ry="30.3"/>
		</g>
		<g>
			<ellipse class="st6" cx="256" cy="260.5" rx="6" ry="17.5"/>
			<ellipse class="st6" cx="339" cy="260.5" rx="6" ry="17.5"/>
		</g>
		<circle class="st3" cx="252.5" cy="252.4" r="4"/>
		<circle class="st3" cx="335.5" cy="252.4" r="4"/>
	</g>
	<path class="st8" d="M1338,417c-1.7,23.9,15.4,45.3,39,49c23.7,3.7,46.5-11.7,52-35"/>
	<path class="st8" d="M1164,474c-4.8,6.2-21.1,28.7-20,61c0.9,26.5,12.9,45,18,52"/>
	<path class="st8" d="M1266,475c4.3,5.2,25.6,32.1,21,69c-2.6,21-12.5,35.9-18,43"/>
	<path class="st8" d="M1104,421c-6.7,0.6-46.1,3.3-78-26c-40-36.7-31.7-90.2-31-94"/>
	<path d="M998.9,258l-45.4,45.4c12.6,12.3,32.7,12.3,45.2-0.2S1011.3,270.6,998.9,258z"/>
	<path d="M1473.4,435.4L1428,390c-12.3,12.6-12.3,32.7,0.2,45.2C1440.7,447.7,1460.9,447.8,1473.4,435.4z"/>
	<path class="st7" d="M1328.7,492h-214.5c-16.7,0-30.2-13.5-30.2-30.2V354.2c0-16.7,13.5-30.2,30.2-30.2h214.5
		c16.7,0,30.2,13.5,30.2,30.2v107.5C1359,478.4,1345.4,492,1328.7,492z"/>
	<path class="st6" d="M1308.1,348h-173.3c-6.6,0-11.9,5.3-11.9,11.9v84.3c0,6.6,5.3,11.9,11.9,11.9h173.3c6.6,0,11.9-5.3,11.9-11.9
		v-84.3C1320,353.3,1314.7,348,1308.1,348z"/>
	<g>
		<ellipse class="st7" cx="1180.5" cy="394.2" rx="23.5" ry="30.3"/>
		<ellipse class="st7" cx="1262.5" cy="394.2" rx="23.5" ry="30.3"/>
	</g>
	<g>
		<ellipse class="st6" cx="1180" cy="393.5" rx="6" ry="17.5"/>
		<ellipse class="st6" cx="1263" cy="393.5" rx="6" ry="17.5"/>
	</g>
	<circle class="st3" cx="1176.5" cy="385.5" r="4"/>
	<circle class="st3" cx="1259.5" cy="385.5" r="4"/>
</g>
</svg>
