<?xml version="1.0" encoding="utf-8"?>
<!-- Generator: Adobe Illustrator 23.0.3, SVG Export Plug-In . SVG Version: 6.00 Build 0)  -->
<svg version="1.1" xmlns="http://www.w3.org/2000/svg" xmlns:xlink="http://www.w3.org/1999/xlink" x="0px" y="0px"
	 viewBox="0 0 606.9 606.9" style="enable-background:new 0 0 606.9 606.9;" xml:space="preserve">
<style type="text/css">
	.st0{display:none;}
	.st1{display:inline;}
	.st2{fill:#E476FF;}
	.st3{fill:#FFFFFF;}
	.st4{fill:none;stroke:#231F20;stroke-width:6;}
	.st5{fill:none;stroke:#231F20;}
	.st6{stroke:#FFFFFF;stroke-miterlimit:10;}
	.st7{fill:#FFFFFF;stroke:#000000;stroke-miterlimit:10;}
	.st8{fill:none;stroke:#000000;stroke-miterlimit:10;}
</style>
<g id="Layer_2" class="st0">
	<g class="st1">
		<rect x="-208.5" y="-208.5" class="st2" width="1031" height="1039"/>
	</g>
</g>
<g id="Layer_1">
	<path d="M-320.5,241.5v101c27.7-0.3,50-22.8,50-50.5S-292.9,241.8-320.5,241.5z"/>
	<g>
		<g>
			<path d="M454.9,301.9c-2.3,0-4.7,0.2-7.1,0.5c-23.9,3.7-41.2,25.4-39.4,49.5l1-0.1c-1.7-23.6,15.2-44.9,38.6-48.5
				c2.3-0.4,4.6-0.5,6.9-0.5c20.8,0,39.6,14.4,44.5,35.2l1-0.2C495.4,316.6,476.2,301.9,454.9,301.9z"/>
			<path class="st3" d="M454.9,301.9c21.2,0,40.5,14.7,45.5,35.9l-1,0.2c-4.9-20.8-23.7-35.2-44.5-35.2c0,0,0,0,0,0
				c-2.3,0-4.6,0.2-6.9,0.5c-23.3,3.6-40.3,24.9-38.6,48.5l-1,0.1c-1.7-24.1,15.6-45.8,39.4-49.5
				C450.3,302.1,452.6,301.9,454.9,301.9 M454.9,289.9c-3,0-5.9,0.2-8.9,0.7c-30,4.6-51.8,32-49.6,62.3l0.9,12l12-0.9l1-0.1l12-0.9
				l-0.9-12c-1.3-17.4,11.2-33.1,28.4-35.7c1.7-0.3,3.4-0.4,5.1-0.4c15.5,0,29.3,10.9,32.9,25.9l2.8,11.7l11.7-2.8l1-0.2l11.7-2.8
				l-2.8-11.7c-3-12.8-10.5-24.4-21-32.6C480.8,294.4,468,289.9,454.9,289.9L454.9,289.9z"/>
			<path class="st4" d="M454.9,301.9c-2.3,0-4.7,0.2-7.1,0.5c-23.9,3.7-41.2,25.4-39.4,49.5l1-0.1c-1.7-23.6,15.2-44.9,38.6-48.5
				c2.3-0.4,4.6-0.5,6.9-0.5c20.8,0,39.6,14.4,44.5,35.2l1-0.2C495.4,316.6,476.2,301.9,454.9,301.9z"/>
		</g>
		<g>
			<path d="M237.6,454.2c-6.4-8.8-17.3-27.3-18.1-52.3c-1-29.6,12.2-51.1,20.1-61.3l0.8,0.6c-7.9,10.1-20.9,31.4-19.9,60.7
				c0.8,24.7,11.6,43,17.9,51.7L237.6,454.2z"/>
			<path class="st3" d="M239.6,340.6l0.8,0.6c-7.9,10.1-20.9,31.4-19.9,60.7c0.8,24.7,11.6,43,17.9,51.7l-0.8,0.6
				c-6.4-8.8-17.3-27.3-18.1-52.3C218.5,372.3,231.6,350.8,239.6,340.6 M237.5,323.7l-7.4,9.5c-8.9,11.5-23.8,35.7-22.6,69.1
				c1,28.2,13.2,49,20.4,58.9l7.1,9.7l9.7-7.1l0.8-0.6l9.7-7.1l-7.1-9.7c-5.5-7.6-14.9-23.5-15.6-45.1
				c-0.9-25.5,10.5-44.1,17.4-52.9l7.4-9.5l-9.5-7.4l-0.8-0.6L237.5,323.7L237.5,323.7z"/>
			<path class="st4" d="M237.6,454.2c-6.4-8.8-17.3-27.3-18.1-52.3c-1-29.6,12.2-51.1,20.1-61.3l0.8,0.6
				c-7.9,10.1-20.9,31.4-19.9,60.7c0.8,24.7,11.6,43,17.9,51.7L237.6,454.2z"/>
		</g>
		<g>
			<path d="M345.4,454.2l-0.8-0.6c6.8-8.8,15.5-23.4,17.9-42.8c4.4-34.9-14.9-61.4-20.9-68.6l0.8-0.6c6.1,7.3,25.5,34.1,21.1,69.4
				C361,430.5,352.3,445.3,345.4,454.2z"/>
			<path class="st3" d="M342.4,341.6c6.1,7.3,25.5,34.1,21.1,69.4c-2.4,19.6-11.2,34.3-18.1,43.2l-0.8-0.6
				c6.8-8.8,15.5-23.4,17.9-42.8c4.4-34.9-14.9-61.4-20.9-68.6L342.4,341.6 M344,324.7l-9.3,7.6l-0.8,0.6l-9.3,7.6l7.6,9.3
				c5.2,6.3,22,29.3,18.2,59.5c-2.1,16.7-9.6,29.3-15.5,36.9l-7.3,9.5l9.5,7.4l0.8,0.6l9.5,7.4l7.4-9.5
				c7.8-10.1,17.7-26.8,20.5-49.1c5-40.1-16.9-70.2-23.8-78.5L344,324.7L344,324.7z"/>
			<path class="st4" d="M345.4,454.2l-0.8-0.6c6.8-8.8,15.5-23.4,17.9-42.8c4.4-34.9-14.9-61.4-20.9-68.6l0.8-0.6
				c6.1,7.3,25.5,34.1,21.1,69.4C361,430.5,352.3,445.3,345.4,454.2z"/>
		</g>
		<g>
			<path d="M175.1,276.9c-15.7,0-45.4,3.5-70.5,26.4c-40.6,37.2-31.6,92.1-31.2,94.5l1-0.2c-0.4-2.3-9.3-56.7,30.8-93.5
				c30.1-27.6,67-26.8,77.6-25.9l0.1-1C181.1,277.1,178.4,276.9,175.1,276.9z"/>
			<path class="st3" d="M175.1,276.9c3.3,0,6,0.2,7.9,0.3l-0.1,1c-1.9-0.2-4.5-0.3-7.8-0.3c-15.5,0-45,3.4-69.8,26.2
				c-40.2,36.8-31.2,91.2-30.8,93.5l-1,0.2c-0.4-2.3-9.4-57.2,31.2-94.5C129.7,280.4,159.4,276.9,175.1,276.9 M175.1,264.9
				c-17.3,0-50.5,3.8-78.6,29.6c-18.7,17.2-30.7,40.5-34.7,67.4c-3,20.4-0.5,36.2-0.2,38l2.1,11.8l11.8-2.1l1-0.2l11.8-2.1
				l-2.1-11.8c-0.1-0.5-2.2-13.2,0.3-30c3.2-21.5,12.2-39.2,26.9-52.6c21.8-20,48-23,61.7-23c3,0,5.4,0.1,6.8,0.3l12,1l1-12l0.1-1
				l1-12l-12-1C181.2,265,178.2,264.9,175.1,264.9L175.1,264.9z"/>
			<path class="st4" d="M175.1,276.9c-15.7,0-45.4,3.5-70.5,26.4c-40.6,37.2-31.6,92.1-31.2,94.5l1-0.2c-0.4-2.3-9.3-56.7,30.8-93.5
				c30.1-27.6,67-26.8,77.6-25.9l0.1-1C181.1,277.1,178.4,276.9,175.1,276.9z"/>
		</g>
		<g>
			<path d="M108.2,426.4L44,424.9c0.6-17.6,15.2-31.5,32.9-31.1S108.5,408.8,108.2,426.4z"/>
			<path class="st5" d="M108.2,426.4L44,424.9c0.6-17.6,15.2-31.5,32.9-31.1S108.5,408.8,108.2,426.4z"/>
			<path class="st3" d="M76.1,393.8c0.3,0,0.5,0,0.8,0c17.6,0.4,31.6,15,31.4,32.6L44,424.9C44.5,407.5,58.8,393.8,76.1,393.8
				 M76.1,387.8v6V387.8L76.1,387.8c-9.9,0-19.3,3.8-26.5,10.7c-7.2,6.9-11.3,16.2-11.6,26.2l-0.2,6.1l6.1,0.1l64.2,1.5l6.1,0.1
				l0.1-6.1c0.3-20.8-16.4-38.2-37.2-38.6C76.7,387.8,76.4,387.8,76.1,387.8L76.1,387.8z"/>
		</g>
		<g>
			<path d="M544.4,333.5L499,378.9c-12.3-12.6-12.3-32.7,0.2-45.2C511.7,321.2,531.9,321.1,544.4,333.5z"/>
			<path class="st5" d="M544.4,333.5L499,378.9c-12.3-12.6-12.3-32.7,0.2-45.2C511.7,321.2,531.9,321.1,544.4,333.5z"/>
			<path class="st3" d="M521.9,324.3c8.1,0,16.3,3.1,22.5,9.2L499,378.9c-12.3-12.6-12.3-32.7,0.2-45.2
				C505.5,327.4,513.7,324.3,521.9,324.3 M521.9,318.3v6V318.3L521.9,318.3c-10.2,0-19.8,4-27,11.2c-14.7,14.7-14.8,38.8-0.3,53.7
				l4.2,4.3l4.3-4.3l45.4-45.4l4.3-4.3l-4.3-4.2C541.5,322.2,532,318.3,521.9,318.3L521.9,318.3z"/>
		</g>
		<g>
			<path d="M305.9,490l64.2,1.6c0.3-17.6-13.7-32.2-31.3-32.6C321.2,458.5,306.6,472.4,305.9,490z"/>
			<path class="st5" d="M305.9,490l64.2,1.6c0.3-17.6-13.7-32.2-31.3-32.6C321.2,458.5,306.6,472.4,305.9,490z"/>
			<path class="st3" d="M338,459c0.3,0,0.6,0,0.8,0c17.6,0.5,31.6,15,31.3,32.6l-64.2-1.6C306.6,472.6,320.8,459,338,459 M338,453
				c-9.9,0-19.3,3.8-26.5,10.7c-7.2,6.9-11.3,16.2-11.6,26.1l-0.2,6.1l6.1,0.2l64.2,1.6l6.1,0.2l0.1-6.1
				c0.3-20.8-16.3-38.2-37.1-38.7C338.7,453,338.4,453,338,453L338,453z"/>
		</g>
		<g>
			<path d="M209.3,489.7l64.3,0.1c-0.1-17.6-14.4-31.8-32.1-31.9C223.8,457.9,209.5,472.1,209.3,489.7z"/>
			<path class="st5" d="M209.3,489.7l64.3,0.1c-0.1-17.6-14.4-31.8-32.1-31.9C223.8,457.9,209.5,472.1,209.3,489.7z"/>
			<path class="st3" d="M241.4,458C241.5,458,241.5,458,241.4,458c17.7,0,32,14.3,32.1,31.9l-64.3-0.1
				C209.5,472.2,223.8,458,241.4,458 M241.4,452c-10.1,0-19.6,3.9-26.8,11c-7.2,7.1-11.2,16.6-11.3,26.7l-0.1,6.1l6.1,0l64.3,0.1
				l6.1,0l-0.1-6.1C279.4,469,262.3,452,241.4,452L241.4,452L241.4,452L241.4,452z"/>
		</g>
		<g>
			<path class="st3" d="M190.2,364.9c-20,0-36.2-16.3-36.2-36.2V221.1c0-20,16.3-36.2,36.2-36.2h214.5c20,0,36.2,16.3,36.2,36.2
				v107.5c0,20-16.3,36.2-36.2,36.2H190.2z"/>
			<path class="st3" d="M404.7,190.9c16.7,0,30.2,13.5,30.2,30.2v107.5c0,16.7-13.5,30.2-30.2,30.2H190.2
				c-16.7,0-30.2-13.5-30.2-30.2V221.1c0-16.7,13.5-30.2,30.2-30.2H404.7 M404.7,178.9H190.2c-23.3,0-42.2,18.9-42.2,42.2v107.5
				c0,23.3,18.9,42.2,42.2,42.2h214.5c23.3,0,42.2-18.9,42.2-42.2V221.1C447,197.8,428,178.9,404.7,178.9L404.7,178.9z"/>
			<path d="M404.7,190.9c16.7,0,30.2,13.5,30.2,30.2v107.5c0,16.7-13.5,30.2-30.2,30.2H190.2c-16.7,0-30.2-13.5-30.2-30.2V221.1
				c0-16.7,13.5-30.2,30.2-30.2H404.7 M404.7,184.9H190.2c-20,0-36.2,16.3-36.2,36.2v107.5c0,20,16.3,36.2,36.2,36.2h214.5
				c20,0,36.2-16.3,36.2-36.2V221.1C441,201.1,424.7,184.9,404.7,184.9L404.7,184.9z"/>
		</g>
		<path class="st6" d="M384.1,214.9H210.8c-6.6,0-11.9,5.3-11.9,11.9V311c0,6.6,5.3,11.9,11.9,11.9h173.3c6.6,0,11.9-5.3,11.9-11.9
			v-84.3C396,220.2,390.7,214.9,384.1,214.9z"/>
		<g>
			<ellipse class="st7" cx="256.5" cy="261.1" rx="23.5" ry="30.3"/>
			<ellipse class="st7" cx="338.5" cy="261.1" rx="23.5" ry="30.3"/>
		</g>
		<g>
			<ellipse class="st6" cx="256" cy="260.5" rx="6" ry="17.5"/>
			<ellipse class="st6" cx="339" cy="260.5" rx="6" ry="17.5"/>
		</g>
		<circle class="st3" cx="260.5" cy="273.5" r="4"/>
		<circle class="st3" cx="343.5" cy="274.5" r="4"/>
	</g>
	<path class="st8" d="M1338,417c-1.7,23.9,15.4,45.3,39,49c23.7,3.7,46.5-11.7,52-35"/>
	<path class="st8" d="M1164,474c-4.8,6.2-21.1,28.7-20,61c0.9,26.5,12.9,45,18,52"/>
	<path class="st8" d="M1266,475c4.3,5.2,25.6,32.1,21,69c-2.6,21-12.5,35.9-18,43"/>
	<path class="st8" d="M1104,421c-6.7,0.6-46.1,3.3-78-26c-40-36.7-31.7-90.2-31-94"/>
	<path d="M998.9,258l-45.4,45.4c12.6,12.3,32.7,12.3,45.2-0.2S1011.3,270.6,998.9,258z"/>
	<path d="M1473.4,435.4L1428,390c-12.3,12.6-12.3,32.7,0.2,45.2C1440.7,447.7,1460.9,447.8,1473.4,435.4z"/>
	<path class="st7" d="M1328.7,492h-214.5c-16.7,0-30.2-13.5-30.2-30.2V354.2c0-16.7,13.5-30.2,30.2-30.2h214.5
		c16.7,0,30.2,13.5,30.2,30.2v107.5C1359,478.4,1345.4,492,1328.7,492z"/>
	<path class="st6" d="M1308.1,348h-173.3c-6.6,0-11.9,5.3-11.9,11.9v84.3c0,6.6,5.3,11.9,11.9,11.9h173.3c6.6,0,11.9-5.3,11.9-11.9
		v-84.3C1320,353.3,1314.7,348,1308.1,348z"/>
	<g>
		<ellipse class="st7" cx="1180.5" cy="394.2" rx="23.5" ry="30.3"/>
		<ellipse class="st7" cx="1262.5" cy="394.2" rx="23.5" ry="30.3"/>
	</g>
	<g>
		<ellipse class="st6" cx="1180" cy="393.5" rx="6" ry="17.5"/>
		<ellipse class="st6" cx="1263" cy="393.5" rx="6" ry="17.5"/>
	</g>
	<circle class="st3" cx="1176.5" cy="385.5" r="4"/>
	<circle class="st3" cx="1259.5" cy="385.5" r="4"/>
</g>
</svg>
