<?xml version="1.0" encoding="utf-8"?>
<!-- Generator: Adobe Illustrator 23.0.3, SVG Export Plug-In . SVG Version: 6.00 Build 0)  -->
<svg version="1.1" id="Layer_1" xmlns="http://www.w3.org/2000/svg" xmlns:xlink="http://www.w3.org/1999/xlink" x="0px" y="0px"
	 viewBox="0 0 1024 1024" style="enable-background:new 0 0 1024 1024;" xml:space="preserve">
<style type="text/css">
	.st0{fill:#2F276E;}
	.st1{fill:#30286E;}
	.st2{fill:#6AE836;}
</style>
<g>
	<path class="st0" d="M291.6,391.6c15.9,0,30.9,0,45.8,0c1.2,0,2.3-0.2,3.5-0.2c8.7-0.3,9.4,0.4,9.4,9c-0.1,12.6-0.1,12.7-12.5,12.8
		c-15.3,0.1-30.6,0-46,0c0,14.9,0,28.6,0,42.8c10.8,0,20.9,0.1,31,0c8.8-0.2,17.6-0.6,26.4-1.1c4.2-0.2,8.3-0.6,12.4-0.8
		c3-0.1,6.4-0.7,6.8,4.1c3.5-8.5,7.2-17,10.5-25.5c12.2-31.3,24.3-62.6,36.2-93.9c1.6-4.3,3.8-5.8,8.4-5.6c9.5,0.3,19,0.3,28.5,0
		c4.1-0.1,5.8,1.4,7.3,5c14.8,38.6,29.8,77.2,44.8,115.8c2.4,6.2,5,12.3,7.9,19.5c-4.2,0.4-7.7,1-11.2,1.1
		c-14.1,0.5-28.3,0.8-42.4,1c-1.1,0-2.7-1.7-3.2-2.9c-2.7-6.8-5.4-13.6-7.6-20.6c-1-3.2-2.7-4-5.8-4c-15.7,0.1-31.3,0-47.4,0
		c-3,7.4-6.1,14.7-8.9,22.1c-1.2,3.3-2.7,4.6-6.4,4.6c-30.8,0-61.5,0.3-92.3,0.4c-16,0.1-31.9,0-49.1,0c0-7.2,0-14.6,0-22
		c-0.2-22.8-0.4-45.6-0.5-68.4c-0.1-14.7,0.1-29.3-0.1-44c-0.1-3.8,1.2-5,4.8-5c36.5-0.2,73-0.6,109.5-0.8c8.2-0.1,8.4,0.3,8.1,8.4
		c-0.1,3.3,0.3,6.6,0.6,10.9c-22.9,0-45.5,0-68.3,0C291.6,367.4,291.6,379.6,291.6,391.6z M421.7,379.6c-0.5-0.1-0.9-0.2-1.4-0.2
		c-6.1,16.2-12.3,32.5-18.4,48.7c12.6,0,24.4,0,36.9,0C432.9,411.4,427.3,395.5,421.7,379.6z"/>
	<path class="st0" d="M86,335.3c17.5,0,34.4-0.1,51.4,0.1c1.2,0,3.1,1.8,3.5,3.1c0.7,2.2,0.5,4.6,0.5,6.9c0,16.3,0,32.6,0,49.2
		c10.5,0,20.4,0,30.7,0c0-17.4,0-34.2,0-51c0-7.9,0-7.6,7.9-7.7c13.1-0.1,26.3-0.5,39.4-0.9c6.8-0.2,7.4,0.3,7.4,7.2
		c0,29.6,0.1,59.2,0.1,88.9c0,13-0.1,26,0.1,38.9c0.1,3.9-1.5,4.9-5,4.8c-15.3-0.1-30.6-0.1-46,0.1c-3.8,0-3.9-2.5-3.9-5
		c0-8.2,0.2-16.3,0.2-24.5c0-9.1,0-18.3,0-27.8c-10.6,0-20.6,0-30.9,0c-0.2,1.7-0.4,3-0.4,4.3c0.1,16.2,0.2,32.3,0.5,48.5
		c0.1,3.2-0.7,4.5-4.1,4.5c-15.8,0.1-31.6,0.4-47.5,0.9c-4.3,0.1-3.9-2.7-3.9-5.3c-0.1-20.3,0-40.6-0.1-60.9
		c-0.1-22.6-0.2-45.3-0.3-67.9C85.7,340,85.9,338.3,86,335.3z"/>
	<path class="st0" d="M846.3,417.6c-10.6,0-20.6,0-31.7,0c0,9.9-0.1,19.5,0,29.1c0.1,7.3,0.3,14.7,0.5,22c0.2,6.2,0.2,6.1-6.2,6.2
		c-14.7,0.2-29.3,0.4-44,0.9c-3.8,0.1-5-1-5-4.7c0-19.7,0-39.3-0.1-59c-0.1-23.3-0.1-46.6-0.5-69.9c-0.1-4.6,0.9-6.6,5.9-6.5
		c15.2,0.1,30.3-0.2,45.5-0.4c3.8-0.1,4.4,2.3,4.4,5.2c0,10,0,20,0,30c0,8,0,16,0,24.3c10.6,0,20.3,0,30.6,0c0-19.6,0-38.7,0-57.9
		c1.7-0.3,2.7-0.8,3.8-0.8c15.1-0.4,30.3-0.6,45.4-1c4.2-0.1,5.8,1.6,5.7,6c-0.3,21.1-0.4,42.3-0.5,63.4c-0.1,15.5,0,31,0,46.4
		c0,4.7-0.4,9.4,0.1,14c1.3,11.5,0.4,10-9.3,10c-13.3,0-26.7-0.2-40,0.1c-3.9,0.1-5.1-1.2-5.1-4.8c0.1-9.3,0.3-18.7,0.3-28
		C846.3,434.1,846.3,426,846.3,417.6z"/>
	<path class="st0" d="M689,637.5c0,15.3-0.2,29.6,0.1,43.9c0.1,4.7-1,6.6-6,6.5c-14.8-0.4-29.6-0.4-44.4-0.4c-3.1,0-4.8-0.6-4.7-4.5
		c0.2-20.5,0.2-41,0.2-61.4c0-24.5,0-48.9,0-73.5c17.6,0,35.1,0,53.3,0c0,20.3,0,40.2,0,61.5c4.4-4.2,8-7.4,11.3-10.8
		c13.8-14.2,27.4-28.6,41.5-42.5c8-7.9,18.2-10.7,29.3-9.9c8,0.6,10.5,3.7,10.6,11.7c0,3,0.1,6,0.1,9c0,2.7-1.2,3.6-3.9,2.5
		c-7.8-3.4-15-1.4-20.8,3.9c-8.7,7.9-16.9,16.5-25.3,24.8c-1.8,1.7-3.4,3.6-5.3,5.6c0.9,1.2,1.7,2.6,2.7,3.9
		c18.7,24.5,37.4,49,56,73.5c1.1,1.5,1.7,3.4,2.5,5.1c-1.8,0.5-3.7,1.5-5.5,1.5c-17.6,0.2-35.3,0.2-52.9,0.1c-1.9,0-4.5-1.5-5.6-3.1
		c-9.6-13.8-19-27.7-28.5-41.6C692.4,641.2,690.8,639.6,689,637.5z"/>
	<path class="st0" d="M503.2,601.7c0.8,28.9,1.5,56.9,2.3,85.6c-7.3,0-14.2,0-22.3,0c0-45.5,0-91.6,0-138.2c-0.2,0,0.4-0.2,1.1-0.2
		c15.7-0.3,31.3-0.5,47-0.8c3.3-0.1,5.3,0.8,7.4,3.6c20.6,26.8,41.4,53.5,62.1,80.2c0.6,0.7,1.2,1.4,2.5,2.9c0-29.2,0-57.3,0-86.3
		c5.8-0.4,11.6-0.9,17.3-0.9c1,0,2.7,2.6,2.7,4c0.1,18-0.2,36-0.1,54c0.1,25.3,0.5,50.6,0.8,76c0.1,6.4,0.1,6.3-6.2,6.3
		c-15,0-30,0.1-45,0.4c-3.2,0.1-5-1-6.9-3.6c-20-26.8-40.2-53.5-60.3-80.3C505,603.7,504.4,603.1,503.2,601.7z"/>
	<path class="st1" d="M302.6,665.5c14.5,0,28.3,0,42.1,0c4.7,0,9.3-0.5,14-0.2c1.1,0.1,3,2,3.1,3.2c0.3,4.5,0.1,9-0.1,13.5
		c-0.1,3.1-1.3,5.4-5.1,5.4c-33.5,0.3-67,0.8-100.4,1c-8.9,0.1-8.9-0.2-9-9.4c-0.1-15-0.6-30-0.7-45c-0.1-21.6,0.1-43.3,0.1-64.9
		c0-5.3-0.3-10.7-0.5-16c-0.1-3.1,0.9-4.5,4.3-4.5c15.1-0.2,30.3-0.5,45.4-0.7c5.7-0.1,5.9,0.5,5.9,6.4c0.1,35.6,0.3,71.3,0.5,106.9
		C302.1,662.8,302.4,664.2,302.6,665.5z"/>
	<path class="st0" d="M570.8,452.7c14,0,27.5,0.1,40.9,0c5,0,10-0.6,14.9-0.4c1.2,0,3.1,1.9,3.2,3c0.3,4.5,0.1,9,0,13.5
		c-0.1,4.2-2.3,5.6-6.4,5.6c-29.3,0.2-58.6,0.7-87.9,1c-4.7,0.1-9.3-0.3-14,0.1c-4.9,0.4-6.1-2.3-6.1-6.3c-0.1-10.5-0.2-21-0.4-31.5
		c-0.3-22.5-0.6-44.9-0.9-67.4c-0.1-10,0-19.9,0-29.9c0-2.8,0.6-4.7,4.1-4.7c15.1-0.1,30.3-0.4,45.4-0.8c4.8-0.2,6.3,1.5,6.2,6.3
		c-0.1,33.5,0,66.9,0.1,100.4C570,445.3,570.5,448.9,570.8,452.7z"/>
	<path class="st2" d="M429.7,609.9c-3.6,0-6.7-0.1-9.8,0c-10.4,0.5-17.8,7.8-18.1,18.2c-0.2,9.7-0.2,19.3,0,29
		c0.2,10.3,7.1,18.2,16.3,18.9c10.7,0.9,18.6-5,21.2-15.5c0.3-1.3,2.3-3.1,3.7-3.2c4.8-0.4,9.6-0.2,15.6-0.2
		c-0.6,4.3-0.7,8.2-1.9,11.8c-4.8,14.8-19.1,27.6-40.3,26.1c-15.1-1.1-29.6-13.8-33-29.7c-0.4-1.9-0.4-4-0.4-6
		c0-10.5,0.4-21-0.1-31.5c-0.9-17.3,15.1-36.8,36.3-37c3.5,0,6.9,0,10.6,0C429.7,597.3,429.7,603.2,429.7,609.9z"/>
	<path class="st2" d="M411.2,647.9c0-6.5,0-12.3,0-19c2.8,0,5.6,0.1,8.3,0c12-0.3,19.6-7.7,19.9-19.8c0.2-8.3,0.1-16.7,0-25
		c0-12.9-6.3-20.6-17.8-21.8c-9.8-1-17.8,6.2-20.3,18.8c-2.8,0-5.7,0-8.6,0c-3,0-6,0-9.4,0c-1.3-8.7,1.8-16,6.7-22.4
		c9.8-12.8,23.2-17.9,38.9-14.5c15.3,3.4,25.2,13.4,28.5,28.8c1.3,6.1,0.7,12.6,0.8,18.9c0.1,5.8-0.3,11.7,0.1,17.5
		c1.1,19.6-15.4,38.1-38.1,38.4C417.3,647.9,414.5,647.9,411.2,647.9z"/>
	<rect x="652" y="326" class="st2" width="41.6" height="149.5"/>
	
		<rect x="652" y="326" transform="matrix(-1.836970e-16 1 -1 -1.836970e-16 1073.5127 -272.0618)" class="st2" width="41.6" height="149.5"/>
</g>
</svg>
