<?xml version="1.0" encoding="utf-8"?>
<!-- Generator: Adobe Illustrator 23.0.3, SVG Export Plug-In . SVG Version: 6.00 Build 0)  -->
<svg version="1.1" xmlns="http://www.w3.org/2000/svg" xmlns:xlink="http://www.w3.org/1999/xlink" x="0px" y="0px"
	 viewBox="0 0 606.9 430.9" style="enable-background:new 0 0 606.9 430.9;" xml:space="preserve">
<style type="text/css">
	.st0{display:none;}
	.st1{display:inline;}
	.st2{fill:#E476FF;}
	.st3{fill:#FFFFFF;}
	.st4{fill:none;stroke:#231F20;stroke-width:6;}
	.st5{fill:none;stroke:#231F20;}
	.st6{stroke:#FFFFFF;stroke-miterlimit:10;}
	.st7{fill:#FFFFFF;stroke:#000000;stroke-miterlimit:10;}
	.st8{fill:none;stroke:#000000;stroke-miterlimit:10;}
</style>
<g id="Layer_2" class="st0">
	<g class="st1">
		<rect x="-208.5" y="-296.5" class="st2" width="1031" height="1039"/>
	</g>
</g>
<g id="Layer_1">
	<path d="M-320.5,153.5v101c27.7-0.3,50-22.8,50-50.5S-292.9,153.8-320.5,153.5z"/>
	<g>
		<g>
			<path d="M454.9,213.9c-2.3,0-4.7,0.2-7.1,0.5c-23.9,3.7-41.2,25.4-39.4,49.5l1-0.1c-1.7-23.6,15.2-44.9,38.6-48.5
				c2.3-0.4,4.6-0.5,6.9-0.5c20.8,0,39.6,14.4,44.5,35.2l1-0.2C495.4,228.6,476.2,213.9,454.9,213.9z"/>
			<path class="st3" d="M454.9,213.9c21.2,0,40.5,14.7,45.5,35.9l-1,0.2c-4.9-20.8-23.7-35.2-44.5-35.2c0,0,0,0,0,0
				c-2.3,0-4.6,0.2-6.9,0.5c-23.3,3.6-40.3,24.9-38.6,48.5l-1,0.1c-1.7-24.1,15.6-45.8,39.4-49.5
				C450.3,214.1,452.6,213.9,454.9,213.9 M454.9,201.9c-3,0-5.9,0.2-8.9,0.7c-30,4.6-51.8,32-49.6,62.3l0.9,12l12-0.9l1-0.1l12-0.9
				l-0.9-12c-1.3-17.4,11.2-33.1,28.4-35.7c1.7-0.3,3.4-0.4,5.1-0.4c15.5,0,29.3,10.9,32.9,25.9l2.8,11.7l11.7-2.8l1-0.2l11.7-2.8
				l-2.8-11.7c-3-12.8-10.5-24.4-21-32.6C480.8,206.4,468,201.9,454.9,201.9L454.9,201.9z"/>
			<path class="st4" d="M454.9,213.9c-2.3,0-4.7,0.2-7.1,0.5c-23.9,3.7-41.2,25.4-39.4,49.5l1-0.1c-1.7-23.6,15.2-44.9,38.6-48.5
				c2.3-0.4,4.6-0.5,6.9-0.5c20.8,0,39.6,14.4,44.5,35.2l1-0.2C495.4,228.6,476.2,213.9,454.9,213.9z"/>
		</g>
		<g>
			<path d="M237.6,366.2c-6.4-8.8-17.3-27.3-18.1-52.3c-1-29.6,12.2-51.1,20.1-61.3l0.8,0.6c-7.9,10.1-20.9,31.4-19.9,60.7
				c0.8,24.7,11.6,43,17.9,51.7L237.6,366.2z"/>
			<path class="st3" d="M239.6,252.6l0.8,0.6c-7.9,10.1-20.9,31.4-19.9,60.7c0.8,24.7,11.6,43,17.9,51.7l-0.8,0.6
				c-6.4-8.8-17.3-27.3-18.1-52.3C218.5,284.3,231.6,262.8,239.6,252.6 M237.5,235.7l-7.4,9.5c-8.9,11.5-23.8,35.7-22.6,69.1
				c1,28.2,13.2,49,20.4,58.9l7.1,9.7l9.7-7.1l0.8-0.6l9.7-7.1l-7.1-9.7c-5.5-7.6-14.9-23.5-15.6-45.1
				c-0.9-25.5,10.5-44.1,17.4-52.9l7.4-9.5l-9.5-7.4l-0.8-0.6L237.5,235.7L237.5,235.7z"/>
			<path class="st4" d="M237.6,366.2c-6.4-8.8-17.3-27.3-18.1-52.3c-1-29.6,12.2-51.1,20.1-61.3l0.8,0.6
				c-7.9,10.1-20.9,31.4-19.9,60.7c0.8,24.7,11.6,43,17.9,51.7L237.6,366.2z"/>
		</g>
		<g>
			<path d="M345.4,366.2l-0.8-0.6c6.8-8.8,15.5-23.4,17.9-42.8c4.4-34.9-14.9-61.4-20.9-68.6l0.8-0.6c6.1,7.3,25.5,34.1,21.1,69.4
				C361,342.5,352.3,357.3,345.4,366.2z"/>
			<path class="st3" d="M342.4,253.6c6.1,7.3,25.5,34.1,21.1,69.4c-2.4,19.6-11.2,34.3-18.1,43.2l-0.8-0.6
				c6.8-8.8,15.5-23.4,17.9-42.8c4.4-34.9-14.9-61.4-20.9-68.6L342.4,253.6 M344,236.7l-9.3,7.6l-0.8,0.6l-9.3,7.6l7.6,9.3
				c5.2,6.3,22,29.3,18.2,59.5c-2.1,16.7-9.6,29.3-15.5,36.9l-7.3,9.5l9.5,7.4l0.8,0.6l9.5,7.4l7.4-9.5
				c7.8-10.1,17.7-26.8,20.5-49.1c5-40.1-16.9-70.2-23.8-78.5L344,236.7L344,236.7z"/>
			<path class="st4" d="M345.4,366.2l-0.8-0.6c6.8-8.8,15.5-23.4,17.9-42.8c4.4-34.9-14.9-61.4-20.9-68.6l0.8-0.6
				c6.1,7.3,25.5,34.1,21.1,69.4C361,342.5,352.3,357.3,345.4,366.2z"/>
		</g>
		<g>
			<path d="M175.1,188.9c-15.7,0-45.4,3.5-70.5,26.4c-40.6,37.2-31.6,92.1-31.2,94.5l1-0.2c-0.4-2.3-9.3-56.7,30.8-93.5
				c30.1-27.6,67-26.8,77.6-25.9l0.1-1C181.1,189.1,178.4,188.9,175.1,188.9z"/>
			<path class="st3" d="M175.1,188.9c3.3,0,6,0.2,7.9,0.3l-0.1,1c-1.9-0.2-4.5-0.3-7.8-0.3c-15.5,0-45,3.4-69.8,26.2
				c-40.2,36.8-31.2,91.2-30.8,93.5l-1,0.2c-0.4-2.3-9.4-57.2,31.2-94.5C129.7,192.4,159.4,188.9,175.1,188.9 M175.1,176.9
				c-17.3,0-50.5,3.8-78.6,29.6c-18.7,17.2-30.7,40.5-34.7,67.4c-3,20.4-0.5,36.2-0.2,38l2.1,11.8l11.8-2.1l1-0.2l11.8-2.1
				l-2.1-11.8c-0.1-0.5-2.2-13.2,0.3-30c3.2-21.5,12.2-39.2,26.9-52.6c21.8-20,48-23,61.7-23c3,0,5.4,0.1,6.8,0.3l12,1l1-12l0.1-1
				l1-12l-12-1C181.2,177,178.2,176.9,175.1,176.9L175.1,176.9z"/>
			<path class="st4" d="M175.1,188.9c-15.7,0-45.4,3.5-70.5,26.4c-40.6,37.2-31.6,92.1-31.2,94.5l1-0.2c-0.4-2.3-9.3-56.7,30.8-93.5
				c30.1-27.6,67-26.8,77.6-25.9l0.1-1C181.1,189.1,178.4,188.9,175.1,188.9z"/>
		</g>
		<g>
			<path d="M108.2,338.4L44,336.9c0.6-17.6,15.2-31.5,32.9-31.1S108.5,320.8,108.2,338.4z"/>
			<path class="st5" d="M108.2,338.4L44,336.9c0.6-17.6,15.2-31.5,32.9-31.1S108.5,320.8,108.2,338.4z"/>
			<path class="st3" d="M76.1,305.8c0.3,0,0.5,0,0.8,0c17.6,0.4,31.6,15,31.4,32.6L44,336.9C44.5,319.5,58.8,305.8,76.1,305.8
				 M76.1,299.8v6V299.8L76.1,299.8c-9.9,0-19.3,3.8-26.5,10.7c-7.2,6.9-11.3,16.2-11.6,26.2l-0.2,6.1l6.1,0.1l64.2,1.5l6.1,0.1
				l0.1-6.1c0.3-20.8-16.4-38.2-37.2-38.6C76.7,299.8,76.4,299.8,76.1,299.8L76.1,299.8z"/>
		</g>
		<g>
			<path d="M544.4,245.5L499,290.9c-12.3-12.6-12.3-32.7,0.2-45.2C511.7,233.2,531.9,233.1,544.4,245.5z"/>
			<path class="st5" d="M544.4,245.5L499,290.9c-12.3-12.6-12.3-32.7,0.2-45.2C511.7,233.2,531.9,233.1,544.4,245.5z"/>
			<path class="st3" d="M521.9,236.3c8.1,0,16.3,3.1,22.5,9.2L499,290.9c-12.3-12.6-12.3-32.7,0.2-45.2
				C505.5,239.4,513.7,236.3,521.9,236.3 M521.9,230.3v6V230.3L521.9,230.3c-10.2,0-19.8,4-27,11.2c-14.7,14.7-14.8,38.8-0.3,53.7
				l4.2,4.3l4.3-4.3l45.4-45.4l4.3-4.3l-4.3-4.2C541.5,234.2,532,230.3,521.9,230.3L521.9,230.3z"/>
		</g>
		<g>
			<path d="M305.9,402l64.2,1.6c0.3-17.6-13.7-32.2-31.3-32.6C321.2,370.5,306.6,384.4,305.9,402z"/>
			<path class="st5" d="M305.9,402l64.2,1.6c0.3-17.6-13.7-32.2-31.3-32.6C321.2,370.5,306.6,384.4,305.9,402z"/>
			<path class="st3" d="M338,371c0.3,0,0.6,0,0.8,0c17.6,0.5,31.6,15,31.3,32.6l-64.2-1.6C306.6,384.6,320.8,371,338,371 M338,365
				c-9.9,0-19.3,3.8-26.5,10.7c-7.2,6.9-11.3,16.2-11.6,26.1l-0.2,6.1l6.1,0.2l64.2,1.6l6.1,0.2l0.1-6.1
				c0.3-20.8-16.3-38.2-37.1-38.7C338.7,365,338.4,365,338,365L338,365z"/>
		</g>
		<g>
			<path d="M209.3,401.7l64.3,0.1c-0.1-17.6-14.4-31.8-32.1-31.9C223.8,369.9,209.5,384.1,209.3,401.7z"/>
			<path class="st5" d="M209.3,401.7l64.3,0.1c-0.1-17.6-14.4-31.8-32.1-31.9C223.8,369.9,209.5,384.1,209.3,401.7z"/>
			<path class="st3" d="M241.4,370C241.5,370,241.5,370,241.4,370c17.7,0,32,14.3,32.1,31.9l-64.3-0.1
				C209.5,384.2,223.8,370,241.4,370 M241.4,364c-10.1,0-19.6,3.9-26.8,11c-7.2,7.1-11.2,16.6-11.3,26.7l-0.1,6.1l6.1,0l64.3,0.1
				l6.1,0l-0.1-6.1C279.4,381,262.3,364,241.4,364L241.4,364L241.4,364L241.4,364z"/>
		</g>
		<g>
			<path class="st3" d="M190.2,276.9c-20,0-36.2-16.3-36.2-36.2V133.1c0-20,16.3-36.2,36.2-36.2h214.5c20,0,36.2,16.3,36.2,36.2
				v107.5c0,20-16.3,36.2-36.2,36.2H190.2z"/>
			<path class="st3" d="M404.7,102.9c16.7,0,30.2,13.5,30.2,30.2v107.5c0,16.7-13.5,30.2-30.2,30.2H190.2
				c-16.7,0-30.2-13.5-30.2-30.2V133.1c0-16.7,13.5-30.2,30.2-30.2H404.7 M404.7,90.9H190.2c-23.3,0-42.2,18.9-42.2,42.2v107.5
				c0,23.3,18.9,42.2,42.2,42.2h214.5c23.3,0,42.2-18.9,42.2-42.2V133.1C447,109.8,428,90.9,404.7,90.9L404.7,90.9z"/>
			<path d="M404.7,102.9c16.7,0,30.2,13.5,30.2,30.2v107.5c0,16.7-13.5,30.2-30.2,30.2H190.2c-16.7,0-30.2-13.5-30.2-30.2V133.1
				c0-16.7,13.5-30.2,30.2-30.2H404.7 M404.7,96.9H190.2c-20,0-36.2,16.3-36.2,36.2v107.5c0,20,16.3,36.2,36.2,36.2h214.5
				c20,0,36.2-16.3,36.2-36.2V133.1C441,113.1,424.7,96.9,404.7,96.9L404.7,96.9z"/>
		</g>
		<path class="st6" d="M384.1,126.9H210.8c-6.6,0-11.9,5.3-11.9,11.9V223c0,6.6,5.3,11.9,11.9,11.9h173.3c6.6,0,11.9-5.3,11.9-11.9
			v-84.3C396,132.2,390.7,126.9,384.1,126.9z"/>
		<g>
			<ellipse class="st7" cx="256.5" cy="173.1" rx="23.5" ry="30.3"/>
			<ellipse class="st7" cx="338.5" cy="173.1" rx="23.5" ry="30.3"/>
		</g>
		<g>
			<ellipse class="st6" cx="256" cy="172.5" rx="6" ry="17.5"/>
			<ellipse class="st6" cx="339" cy="172.5" rx="6" ry="17.5"/>
		</g>
		<circle class="st3" cx="260.5" cy="185.5" r="4"/>
		<circle class="st3" cx="343.5" cy="186.5" r="4"/>
	</g>
	<path class="st8" d="M1338,329c-1.7,23.9,15.4,45.3,39,49c23.7,3.7,46.5-11.7,52-35"/>
	<path class="st8" d="M1164,386c-4.8,6.2-21.1,28.7-20,61c0.9,26.5,12.9,45,18,52"/>
	<path class="st8" d="M1266,387c4.3,5.2,25.6,32.1,21,69c-2.6,21-12.5,35.9-18,43"/>
	<path class="st8" d="M1104,333c-6.7,0.6-46.1,3.3-78-26c-40-36.7-31.7-90.2-31-94"/>
	<path d="M998.9,170l-45.4,45.4c12.6,12.3,32.7,12.3,45.2-0.2C1011.2,202.7,1011.3,182.6,998.9,170z"/>
	<path d="M1473.4,347.4L1428,302c-12.3,12.6-12.3,32.7,0.2,45.2C1440.7,359.7,1460.9,359.8,1473.4,347.4z"/>
	<path class="st7" d="M1328.7,404h-214.5c-16.7,0-30.2-13.5-30.2-30.2V266.2c0-16.7,13.5-30.2,30.2-30.2h214.5
		c16.7,0,30.2,13.5,30.2,30.2v107.5C1359,390.4,1345.4,404,1328.7,404z"/>
	<path class="st6" d="M1308.1,260h-173.3c-6.6,0-11.9,5.3-11.9,11.9v84.3c0,6.6,5.3,11.9,11.9,11.9h173.3c6.6,0,11.9-5.3,11.9-11.9
		v-84.3C1320,265.3,1314.7,260,1308.1,260z"/>
	<g>
		<ellipse class="st7" cx="1180.5" cy="306.2" rx="23.5" ry="30.3"/>
		<ellipse class="st7" cx="1262.5" cy="306.2" rx="23.5" ry="30.3"/>
	</g>
	<g>
		<ellipse class="st6" cx="1180" cy="305.5" rx="6" ry="17.5"/>
		<ellipse class="st6" cx="1263" cy="305.5" rx="6" ry="17.5"/>
	</g>
	<circle class="st3" cx="1176.5" cy="297.5" r="4"/>
	<circle class="st3" cx="1259.5" cy="297.5" r="4"/>
</g>
</svg>
